<svg width="1600" height="520" viewBox="0 0 1600 520" fill="none" xmlns="http://www.w3.org/2000/svg">
  <defs>
    <linearGradient id="bg" x1="0" y1="0" x2="1600" y2="520" gradientUnits="userSpaceOnUse">
      <stop stop-color="#07131F"/>
      <stop offset="0.55" stop-color="#10243C"/>
      <stop offset="1" stop-color="#0F4C5C"/>
    </linearGradient>
    <linearGradient id="line" x1="224" y1="92" x2="1376" y2="428" gradientUnits="userSpaceOnUse">
      <stop stop-color="#F4D35E"/>
      <stop offset="0.45" stop-color="#EE964B"/>
      <stop offset="1" stop-color="#9FFFCB"/>
    </linearGradient>
    <filter id="glow" x="-20%" y="-20%" width="140%" height="140%">
      <feGaussianBlur stdDeviation="8" result="blur"/>
      <feMerge>
        <feMergeNode in="blur"/>
        <feMergeNode in="SourceGraphic"/>
      </feMerge>
    </filter>
  </defs>

  <rect width="1600" height="520" rx="28" fill="url(#bg)"/>

  <g opacity="0.22">
    <path d="M120 118H1480" stroke="#E0FBFC" stroke-width="1"/>
    <path d="M120 196H1480" stroke="#E0FBFC" stroke-width="1"/>
    <path d="M120 274H1480" stroke="#E0FBFC" stroke-width="1"/>
    <path d="M120 352H1480" stroke="#E0FBFC" stroke-width="1"/>
    <path d="M120 430H1480" stroke="#E0FBFC" stroke-width="1"/>
    <path d="M224 76V444" stroke="#E0FBFC" stroke-width="1"/>
    <path d="M512 76V444" stroke="#E0FBFC" stroke-width="1"/>
    <path d="M800 76V444" stroke="#E0FBFC" stroke-width="1"/>
    <path d="M1088 76V444" stroke="#E0FBFC" stroke-width="1"/>
    <path d="M1376 76V444" stroke="#E0FBFC" stroke-width="1"/>
  </g>

  <g filter="url(#glow)">
    <path d="M224 352L416 244L608 286L800 168L992 214L1184 122L1376 176" stroke="url(#line)" stroke-width="8" stroke-linecap="round" stroke-linejoin="round"/>
    <circle cx="224" cy="352" r="10" fill="#F4D35E"/>
    <circle cx="416" cy="244" r="10" fill="#F4D35E"/>
    <circle cx="608" cy="286" r="10" fill="#EE964B"/>
    <circle cx="800" cy="168" r="10" fill="#EE964B"/>
    <circle cx="992" cy="214" r="10" fill="#9FFFCB"/>
    <circle cx="1184" cy="122" r="10" fill="#9FFFCB"/>
    <circle cx="1376" cy="176" r="10" fill="#9FFFCB"/>
  </g>

  <text x="120" y="162" fill="#F8FAFC" font-family="Georgia, 'Times New Roman', serif" font-size="92" font-weight="700" letter-spacing="2">CLASP</text>
  <text x="120" y="224" fill="#D7F9F1" font-family="'Courier New', monospace" font-size="26" letter-spacing="3">PROGRAMMING LANGUAGE FOR AI AGENTS</text>

  <text x="120" y="330" fill="#E5E7EB" font-family="'Courier New', monospace" font-size="24">One language. Shared schemas. Generated boundaries.</text>
  <text x="120" y="370" fill="#E5E7EB" font-family="'Courier New', monospace" font-size="24">Compiler: Haskell  •  First target: JavaScript  •  Release: v0.01</text>

  <rect x="116" y="400" width="276" height="46" rx="23" fill="#0B132B" stroke="#9FFFCB" stroke-width="2"/>
  <text x="142" y="430" fill="#9FFFCB" font-family="'Courier New', monospace" font-size="20">schema-first • agent-native</text>
</svg>
